<svg width="17" height="17" viewBox="0 0 17 17" fill="none" xmlns="http://www.w3.org/2000/svg">
<path d="M7.47772 14.9546C9.13682 14.9543 10.8359 14.1363 12.1429 13.1143L16.0286 17L17 16.0286L13.1143 12.1429C14.1369 10.8359 14.955 9.13676 14.9554 7.47732C14.9554 3.35451 11.6007 0 7.47772 0C3.35469 0 0 3.35451 0 7.47732C0 11.6001 3.35469 14.9546 7.47772 14.9546ZM7.47772 0.971429C10.5707 0.971429 14.0349 3.88571 13.9152 7.47732C13.9713 11.1714 10.5707 13.9084 7.47772 13.9084C4.38475 13.9084 1.21979 11.5663 1.08896 7.47732C1.21219 3.4 4.38475 0.971429 7.47772 0.971429Z" fill="#96B9FF"/>
</svg>
