<svg width="40" height="40" viewBox="0 0 40 40" fill="none" xmlns="http://www.w3.org/2000/svg">
<circle cx="20" cy="20" r="20" fill="#96B9FF"/>
<path d="M20 9.16666C18.9287 9.16666 17.8814 9.48434 16.9907 10.0795C16.0999 10.6747 15.4056 11.5207 14.9957 12.5105C14.5857 13.5002 14.4784 14.5893 14.6874 15.6401C14.8964 16.6908 15.4123 17.656 16.1698 18.4135C16.9274 19.171 17.8925 19.6869 18.9433 19.8959C19.994 20.1049 21.0831 19.9976 22.0729 19.5877C23.0626 19.1777 23.9086 18.4834 24.5038 17.5927C25.099 16.7019 25.4167 15.6546 25.4167 14.5833C25.4167 13.1467 24.846 11.769 23.8302 10.7532C22.8143 9.73734 21.4366 9.16666 20 9.16666ZM20 17.8333C19.3572 17.8333 18.7289 17.6427 18.1944 17.2856C17.6599 16.9285 17.2434 16.4209 16.9974 15.827C16.7514 15.2332 16.687 14.5797 16.8124 13.9493C16.9378 13.3188 17.2474 12.7397 17.7019 12.2852C18.1564 11.8307 18.7355 11.5212 19.366 11.3958C19.9964 11.2704 20.6499 11.3347 21.2437 11.5807C21.8376 11.8267 22.3452 12.2433 22.7023 12.7777C23.0594 13.3122 23.25 13.9405 23.25 14.5833C23.25 15.4453 22.9076 16.2719 22.2981 16.8814C21.6886 17.4909 20.862 17.8333 20 17.8333ZM29.75 29.75V28.6667C29.75 26.6554 28.951 24.7266 27.5289 23.3044C26.1067 21.8823 24.1779 21.0833 22.1667 21.0833H17.8333C15.8221 21.0833 13.8933 21.8823 12.4711 23.3044C11.049 24.7266 10.25 26.6554 10.25 28.6667V29.75H12.4167V28.6667C12.4167 27.2301 12.9873 25.8523 14.0032 24.8365C15.019 23.8207 16.3967 23.25 17.8333 23.25H22.1667C23.6033 23.25 24.981 23.8207 25.9968 24.8365C27.0127 25.8523 27.5833 27.2301 27.5833 28.6667V29.75H29.75Z" fill="white"/>
</svg>
